<svg version="1.1" id="Layer_1" xmlns="http://www.w3.org/2000/svg" xmlns:xlink="http://www.w3.org/1999/xlink" x="0px" y="0px"
	 width="100%" viewBox="0 0 512 512" enable-background="new 0 0 512 512" xml:space="preserve">
<path fill="#FFFFFF" opacity="1.000000" stroke="none" 
	d="
M1.000001,235.000000 
	C1.000000,157.072952 1.000000,79.145912 1.000000,1.000000 
	C78.687424,1.000000 156.375061,1.000000 234.352722,1.370215 
	C232.428543,1.882488 230.214340,2.024546 227.581421,2.097852 
	C224.751434,2.353189 222.311111,2.536915 219.934464,3.028521 
	C213.608337,4.337067 207.309647,5.778233 200.588882,7.096898 
	C192.104507,9.312788 184.031296,11.598445 175.565887,13.934019 
	C167.101807,17.283733 159.029907,20.583530 150.578705,23.933434 
	C142.453934,27.948019 134.708466,31.912500 126.640961,36.026897 
	C117.178215,42.432964 108.037491,48.689114 98.589020,55.081833 
	C89.174782,63.772198 80.068306,72.325996 70.653320,81.020325 
	C60.399025,93.841934 50.453239,106.523010 40.284142,119.543724 
	C39.292423,121.123993 38.414238,122.310539 37.772503,123.613548 
	C30.954735,137.456665 23.537649,151.049271 17.542896,165.241928 
	C9.800273,183.572678 5.218198,202.886459 2.963892,222.710876 
	C2.495669,226.828445 1.664111,230.904709 1.000001,235.000000 
z"/>
<path fill="#FFFFFF" opacity="1.000000" stroke="none" 
	d="
M513.000000,279.000000 
	C513.000000,356.927032 513.000000,434.854095 513.000000,513.000000 
	C435.312561,513.000000 357.624939,513.000000 279.591370,512.668579 
	C280.163391,512.169250 281.081360,512.001343 282.439880,511.903564 
	C290.920013,510.926941 298.959534,509.880188 307.381500,508.767517 
	C315.856628,506.506287 323.949371,504.310944 332.435364,502.066040 
	C341.566528,498.716431 350.304382,495.416382 359.413879,492.058716 
	C368.316345,487.620636 376.847137,483.240173 385.760803,478.873962 
	C394.095490,473.537140 402.047302,468.186066 410.335663,462.805298 
	C418.127411,456.224304 425.582611,449.673035 433.345032,442.981140 
	C441.782288,433.931946 449.912323,425.023376 458.357544,415.968109 
	C460.734558,413.092010 463.017639,410.500366 464.818481,407.608398 
	C471.334473,397.144287 477.688446,386.579285 484.415100,375.883789 
	C488.837585,366.374664 493.275055,357.161804 496.989471,347.666138 
	C504.037933,329.647247 508.711243,310.981415 511.025208,291.741730 
	C511.538116,287.477020 512.334229,283.246338 513.000000,279.000000 
z"/>
<path fill="#FFFFFF" opacity="1.000000" stroke="none" 
	d="
M235.000000,513.000000 
	C157.072968,513.000000 79.145927,513.000000 1.000000,513.000000 
	C1.000000,435.312561 1.000000,357.624939 1.382336,279.661072 
	C2.863103,288.620483 3.083557,298.068909 5.257806,307.043976 
	C8.866800,321.941437 12.626275,336.983490 18.371412,351.132660 
	C24.376282,365.921417 32.800140,379.727966 40.187485,394.309204 
	C40.804138,395.430145 41.450722,396.172180 41.987991,396.986359 
	C50.528294,409.927979 59.650089,422.401489 71.092102,433.423889 
	C78.135849,440.192627 85.049316,446.657684 92.098846,453.431610 
	C97.809143,457.866150 103.383369,461.991821 109.098969,466.430756 
	C116.826942,471.440887 124.413536,476.137756 132.319519,480.991455 
	C141.745255,485.471008 150.851624,489.793671 160.135254,494.432861 
	C168.861084,497.538177 177.409668,500.326996 186.156693,503.442780 
	C194.570312,505.457611 202.785522,507.145477 211.361435,509.020630 
	C218.814850,510.083008 225.907532,510.958160 233.312622,511.907898 
	C234.083359,512.321655 234.541672,512.660828 235.000000,513.000000 
z"/>
<path fill="#FFFFFF" opacity="1.000000" stroke="none" 
	d="
M279.000000,1.000000 
	C356.927032,1.000000 434.854095,1.000000 513.000000,1.000000 
	C513.000000,78.687424 513.000000,156.375061 512.618652,234.337524 
	C510.158722,221.408966 508.743378,208.058060 505.847595,195.036377 
	C501.396454,175.020676 494.116577,155.926468 484.054474,137.588058 
	C475.349396,124.112511 466.695831,110.998795 457.905945,97.576401 
	C449.525726,88.471245 441.281799,79.674774 432.906006,70.574265 
	C424.551575,63.495972 416.329071,56.721699 407.959473,49.630989 
	C397.910156,43.192215 388.007904,37.069878 377.934692,30.632614 
	C377.179565,30.044466 376.602173,29.755465 376.010162,29.500380 
	C367.024658,25.628613 358.037231,21.761301 348.869202,17.573818 
	C339.475372,14.467663 330.262634,11.680631 320.840149,8.559741 
	C319.503296,8.048999 318.373749,7.886385 317.249481,7.692970 
	C308.498871,6.187547 299.749237,4.676192 290.587585,3.081686 
	C286.450531,2.331135 282.725281,1.665567 279.000000,1.000000 
z"/>
<path fill="#00EF92" opacity="1.000000" stroke="none" 
	d="
M40.166557,393.963898 
	C32.800140,379.727966 24.376282,365.921417 18.371412,351.132660 
	C12.626275,336.983490 8.866800,321.941437 5.257806,307.043976 
	C3.083557,298.068909 2.863103,288.620483 1.382336,279.192383 
	C1.000000,264.645782 1.000000,250.291550 1.000001,235.468658 
	C1.664111,230.904709 2.495669,226.828445 2.963892,222.710876 
	C5.218198,202.886459 9.800273,183.572678 17.542896,165.241928 
	C23.537649,151.049271 30.954735,137.456665 37.772503,123.613548 
	C38.414238,122.310539 39.292423,121.123993 40.379078,120.122070 
	C41.131481,122.795769 41.943336,125.230492 41.945179,127.665825 
	C42.010509,213.906586 42.015453,300.147461 41.922993,386.388153 
	C41.920280,388.914032 40.777679,391.438690 40.166557,393.963898 
z"/>
<path fill="#00A1FB" opacity="1.000000" stroke="none" 
	d="
M484.105988,137.949890 
	C494.116577,155.926468 501.396454,175.020676 505.847595,195.036377 
	C508.743378,208.058060 510.158722,221.408966 512.618652,234.806183 
	C513.000000,249.354233 513.000000,263.708466 513.000000,278.531342 
	C512.334229,283.246338 511.538116,287.477020 511.025208,291.741730 
	C508.711243,310.981415 504.037933,329.647247 496.989471,347.666138 
	C493.275055,357.161804 488.837585,366.374664 484.100586,375.598572 
	C483.316376,374.010681 483.020172,372.539490 483.019745,371.068268 
	C482.997284,295.073151 482.992737,219.078049 483.046173,143.082962 
	C483.047363,141.371689 483.737335,139.660904 484.105988,137.949890 
z"/>
<path fill="#00C6CA" opacity="1.000000" stroke="none" 
	d="
M278.531464,1.000000 
	C282.725281,1.665567 286.450531,2.331135 290.587891,3.539250 
	C291.000000,29.331820 290.999969,54.581841 290.535889,79.901871 
	C279.381165,79.925224 268.690491,79.878563 257.999939,79.373787 
	C258.000031,52.943775 258.000000,26.971888 258.000000,1.000000 
	C264.687653,1.000000 271.375275,1.000000 278.531464,1.000000 
z"/>
<path fill="#00CBC3" opacity="1.000000" stroke="none" 
	d="
M257.531372,1.000000 
	C258.000000,26.971888 258.000031,52.943775 257.535828,79.443695 
	C247.380981,79.925125 237.690308,79.878525 227.999817,79.373810 
	C228.000031,53.332661 228.000076,27.749632 228.000122,2.166604 
	C230.214340,2.024546 232.428543,1.882488 234.821381,1.370215 
	C242.354248,1.000000 249.708496,1.000000 257.531372,1.000000 
z"/>
<path fill="#00C7C9" opacity="1.000000" stroke="none" 
	d="
M281.999298,511.833435 
	C281.081360,512.001343 280.163391,512.169250 279.122742,512.668579 
	C271.979034,513.000000 264.958099,513.000000 257.468567,512.531372 
	C256.999878,486.097839 256.999786,460.132965 257.463745,434.097961 
	C265.951843,434.074524 273.975891,434.121277 281.999969,434.626160 
	C281.999786,460.667328 281.999542,486.250397 281.999298,511.833435 
z"/>
<path fill="#00CBC3" opacity="1.000000" stroke="none" 
	d="
M256.999695,434.168121 
	C256.999786,460.132965 256.999878,486.097839 257.000000,512.531372 
	C249.979050,513.000000 242.958099,513.000000 235.468567,513.000000 
	C234.541672,512.660828 234.083359,512.321655 233.312515,511.450317 
	C232.999893,485.334839 232.999786,459.751495 233.463715,434.097900 
	C241.618408,434.074493 249.309052,434.121307 256.999695,434.168121 
z"/>
<path fill="#00E99A" opacity="1.000000" stroke="none" 
	d="
M40.187481,394.309204 
	C40.777679,391.438690 41.920280,388.914032 41.922993,386.388153 
	C42.015453,300.147461 42.010509,213.906586 41.945179,127.665825 
	C41.943336,125.230492 41.131481,122.795769 40.602386,119.782425 
	C50.453239,106.523010 60.399025,93.841934 70.711662,81.443680 
	C71.385681,84.177681 71.960556,86.628746 71.961525,89.080048 
	C72.005859,200.978546 72.007492,312.877075 71.956566,424.775543 
	C71.955299,427.557220 71.307877,430.338654 70.961815,433.120178 
	C59.650089,422.401489 50.528294,409.927979 41.987991,396.986359 
	C41.450722,396.172180 40.804138,395.430145 40.187481,394.309204 
z"/>
<path fill="#00E5A0" opacity="1.000000" stroke="none" 
	d="
M71.092102,433.423889 
	C71.307877,430.338654 71.955299,427.557220 71.956566,424.775543 
	C72.007492,312.877075 72.005859,200.978546 71.961525,89.080048 
	C71.960556,86.628746 71.385681,84.177681 71.020172,81.303146 
	C80.068306,72.325996 89.174782,63.772198 98.903275,55.367577 
	C99.683525,57.316475 99.975830,59.115940 99.979256,60.915958 
	C100.013466,78.867676 99.957436,96.819740 100.065750,114.770866 
	C100.076614,116.571960 101.002266,118.367523 101.350914,120.486206 
	C87.127983,139.529266 80.048256,160.625122 80.019318,184.020874 
	C79.959145,232.670898 80.051003,281.321106 79.975540,329.971069 
	C79.947052,348.328796 84.056458,365.555145 93.118965,381.986908 
	C92.710732,385.881592 92.066360,389.324646 92.047600,392.771118 
	C91.938080,412.887878 91.975189,433.005432 91.962784,453.122711 
	C85.049316,446.657684 78.135849,440.192627 71.092102,433.423889 
z"/>
<path fill="#00D0BC" opacity="1.000000" stroke="none" 
	d="
M227.581421,2.097852 
	C228.000076,27.749632 228.000031,53.332661 227.535736,79.443687 
	C218.380829,79.925087 209.690201,79.878487 200.999756,79.373764 
	C200.999985,54.999321 201.000015,31.082993 201.000046,7.166664 
	C207.309647,5.778233 213.608337,4.337067 219.934464,3.028521 
	C222.311111,2.536915 224.751434,2.353189 227.581421,2.097852 
z"/>
<path fill="#00D4B7" opacity="1.000000" stroke="none" 
	d="
M200.588882,7.096898 
	C201.000015,31.082993 200.999985,54.999321 200.535706,79.443680 
	C192.047729,79.990509 184.024017,80.009293 176.000137,79.557663 
	C175.986008,57.352867 175.972046,35.618488 175.958069,13.884104 
	C184.031296,11.598445 192.104507,9.312788 200.588882,7.096898 
z"/>
<path fill="#01E0A7" opacity="1.000000" stroke="none" 
	d="
M101.503365,120.165657 
	C101.002266,118.367523 100.076614,116.571960 100.065750,114.770866 
	C99.957436,96.819740 100.013466,78.867676 99.979256,60.915958 
	C99.975830,59.115940 99.683525,57.316475 99.211029,55.231007 
	C108.037491,48.689114 117.178215,42.432964 126.652122,36.503769 
	C126.990219,54.029388 126.913322,71.228935 127.100021,88.425629 
	C127.124298,90.661835 128.506744,92.883301 129.063354,95.394775 
	C118.339935,102.269882 109.257446,110.475571 101.503365,120.165657 
z"/>
<path fill="#00D8B1" opacity="1.000000" stroke="none" 
	d="
M175.565887,13.934021 
	C175.972046,35.618488 175.986008,57.352867 175.606476,79.676895 
	C167.474258,81.757050 159.735565,83.247559 151.928284,84.341087 
	C151.573135,81.834610 151.047073,79.726181 151.037659,77.615448 
	C150.957779,59.704979 150.972015,41.794090 150.958008,23.883327 
	C159.029907,20.583530 167.101807,17.283733 175.565887,13.934021 
z"/>
<path fill="#00DCAC" opacity="1.000000" stroke="none" 
	d="
M150.578705,23.933434 
	C150.972015,41.794090 150.957779,59.704979 151.037659,77.615448 
	C151.047073,79.726181 151.573135,81.834610 151.583099,84.500992 
	C143.957687,88.409111 136.608902,91.760353 129.260101,95.111588 
	C128.506744,92.883301 127.124298,90.661835 127.100021,88.425629 
	C126.913322,71.228935 126.990219,54.029388 126.974144,36.353851 
	C134.708466,31.912500 142.453934,27.948019 150.578705,23.933434 
z"/>
<path fill="#00A9F0" opacity="1.000000" stroke="none" 
	d="
M433.037903,70.878296 
	C441.281799,79.674774 449.525726,88.471245 457.893158,98.052643 
	C458.025238,204.596649 458.033783,310.355713 458.042328,416.114777 
	C449.912323,425.023376 441.782288,433.931946 433.333618,442.504395 
	C433.010010,416.893036 433.080994,391.617310 432.903259,366.343323 
	C432.881195,363.206543 431.538239,360.079071 430.815918,356.534058 
	C431.883881,345.738098 433.779968,335.361542 433.857849,324.971405 
	C434.195557,279.907135 434.235809,234.836823 433.837891,189.773529 
	C433.738953,178.567078 431.599762,167.378647 430.770325,155.970398 
	C431.761536,151.891815 432.889221,148.028442 432.917145,144.157135 
	C433.093201,119.731834 433.025238,95.304771 433.037903,70.878296 
z"/>
<path fill="#00A5F5" opacity="1.000000" stroke="none" 
	d="
M458.357544,415.968109 
	C458.033783,310.355713 458.025238,204.596649 458.029480,98.361328 
	C466.695831,110.998795 475.349396,124.112511 484.054474,137.588058 
	C483.737335,139.660904 483.047363,141.371689 483.046173,143.082962 
	C482.992737,219.078049 482.997284,295.073151 483.019745,371.068268 
	C483.020172,372.539490 483.316376,374.010681 483.789062,375.767090 
	C477.688446,386.579285 471.334473,397.144287 464.818481,407.608398 
	C463.017639,410.500366 460.734558,413.092010 458.357544,415.968109 
z"/>
<path fill="#00C2CE" opacity="1.000000" stroke="none" 
	d="
M282.439880,511.903564 
	C281.999542,486.250397 281.999786,460.667328 282.464050,434.556091 
	C290.952026,434.074585 298.976013,434.121307 307.000000,434.626160 
	C306.999695,459.667328 306.999390,484.250397 306.999084,508.833435 
	C298.959534,509.880188 290.920013,510.926941 282.439880,511.903564 
z"/>
<path fill="#01AEEA" opacity="1.000000" stroke="none" 
	d="
M430.807343,356.947266 
	C431.538239,360.079071 432.881195,363.206543 432.903259,366.343323 
	C433.080994,391.617310 433.010010,416.893036 433.026367,442.645020 
	C425.582611,449.673035 418.127411,456.224304 410.323883,462.393066 
	C409.650360,459.237030 409.067047,456.465851 409.041779,453.689575 
	C408.874054,435.281738 408.825989,416.872772 408.876923,398.176331 
	C419.355499,385.878998 426.220856,372.019623 430.807343,356.947266 
z"/>
<path fill="#00BED4" opacity="1.000000" stroke="none" 
	d="
M307.381500,508.767517 
	C306.999390,484.250397 306.999695,459.667328 307.464050,434.556152 
	C315.952087,434.066925 323.976013,434.105865 331.999969,434.604370 
	C332.014008,457.414520 332.028046,479.765076 332.042053,502.115631 
	C323.949371,504.310944 315.856628,506.506287 307.381500,508.767517 
z"/>
<path fill="#00BADA" opacity="1.000000" stroke="none" 
	d="
M332.435364,502.066040 
	C332.028046,479.765076 332.014008,457.414520 332.443848,434.517029 
	C341.592102,432.701721 350.296478,431.433350 359.000488,430.623291 
	C359.014130,451.426514 359.028168,471.771393 359.042206,492.116333 
	C350.304382,495.416382 341.566528,498.716431 332.435364,502.066040 
z"/>
<path fill="#00B5E0" opacity="1.000000" stroke="none" 
	d="
M359.413879,492.058716 
	C359.028168,471.771393 359.014130,451.426514 359.348083,430.479553 
	C368.103455,426.167999 376.510864,422.458496 384.942657,419.232819 
	C384.978027,423.860229 384.971649,428.003937 385.003113,432.147369 
	C385.121368,447.718201 385.251984,463.288971 385.377930,478.859741 
	C376.847137,483.240173 368.316345,487.620636 359.413879,492.058716 
z"/>
<path fill="#00B1E5" opacity="1.000000" stroke="none" 
	d="
M385.760803,478.873962 
	C385.251984,463.288971 385.121368,447.718201 385.003113,432.147369 
	C384.971649,428.003937 384.978027,423.860229 385.132751,418.964111 
	C393.112000,411.629120 400.925476,405.046661 408.738983,398.464203 
	C408.825989,416.872772 408.874054,435.281738 409.041779,453.689575 
	C409.067047,456.465851 409.650360,459.237030 409.987335,462.422791 
	C402.047302,468.186066 394.095490,473.537140 385.760803,478.873962 
z"/>
<path fill="#00D2B9" opacity="1.000000" stroke="none" 
	d="
M211.000717,508.833374 
	C202.785522,507.145477 194.570312,505.457611 186.169312,502.966492 
	C185.988876,479.498077 185.994247,456.832886 186.463684,434.097412 
	C194.951675,434.074097 202.975616,434.121063 210.999741,434.626160 
	C211.000183,459.667328 211.000443,484.250336 211.000717,508.833374 
z"/>
<path fill="#00D6B4" opacity="1.000000" stroke="none" 
	d="
M185.999619,434.167694 
	C185.994247,456.832886 185.988876,479.498077 185.970886,502.639526 
	C177.409668,500.326996 168.861084,497.538177 160.147919,493.956543 
	C160.046860,472.588898 160.110352,452.014008 160.594604,431.512054 
	C169.343445,432.445862 177.671539,433.306763 185.999619,434.167694 
z"/>
<path fill="#00CEBE" opacity="1.000000" stroke="none" 
	d="
M211.361435,509.020630 
	C211.000443,484.250336 211.000183,459.667328 211.463730,434.555878 
	C218.951584,434.074371 225.975616,434.121246 232.999664,434.168152 
	C232.999786,459.751495 232.999893,485.334839 233.000122,511.375732 
	C225.907532,510.958160 218.814850,510.083008 211.361435,509.020630 
z"/>
<path fill="#00DBAD" opacity="1.000000" stroke="none" 
	d="
M160.173828,431.439148 
	C160.110352,452.014008 160.046860,472.588898 159.970688,493.640045 
	C150.851624,489.793671 141.745255,485.471008 132.331543,480.579346 
	C132.349472,477.238098 132.938354,474.467499 132.955948,471.693298 
	C133.049545,456.936798 132.956375,442.179077 133.055176,427.422668 
	C133.067535,425.576843 133.832581,423.736053 134.597473,421.933228 
	C143.355331,425.128693 151.764587,428.283905 160.173828,431.439148 
z"/>
<path fill="#01DFA7" opacity="1.000000" stroke="none" 
	d="
M134.248856,421.892944 
	C133.832581,423.736053 133.067535,425.576843 133.055176,427.422668 
	C132.956375,442.179077 133.049545,456.936798 132.955948,471.693298 
	C132.938354,474.467499 132.349472,477.238098 132.012177,480.422485 
	C124.413536,476.137756 116.826942,471.440887 109.111755,465.954407 
	C108.988785,447.638092 108.945786,430.111145 109.047745,412.585052 
	C109.064781,409.657288 109.711510,406.733154 110.378174,403.945557 
	C118.542343,410.020172 126.395599,415.956573 134.248856,421.892944 
z"/>
<path fill="#01E3A3" opacity="1.000000" stroke="none" 
	d="
M110.067276,403.807343 
	C109.711510,406.733154 109.064781,409.657288 109.047745,412.585052 
	C108.945786,430.111145 108.988785,447.638092 108.970383,465.641113 
	C103.383369,461.991821 97.809143,457.866150 92.098846,453.431610 
	C91.975189,433.005432 91.938080,412.887878 92.047600,392.771118 
	C92.066360,389.324646 92.710732,385.881592 93.403305,382.199951 
	C99.182770,389.244385 104.625023,396.525879 110.067276,403.807343 
z"/>
<path fill="#00C0D1" opacity="1.000000" stroke="none" 
	d="
M290.999969,79.831863 
	C290.999969,54.581841 291.000000,29.331820 290.999664,3.624235 
	C299.749237,4.676192 308.498871,6.187547 317.249481,7.692970 
	C318.373749,7.886385 319.503296,8.048999 320.671021,8.950739 
	C320.474426,11.627605 320.035461,13.579151 320.030945,15.531697 
	C319.981628,36.965054 320.000000,58.398563 319.535919,79.902084 
	C309.714539,79.925377 300.357269,79.878616 290.999969,79.831863 
z"/>
<path fill="#01AEEA" opacity="1.000000" stroke="none" 
	d="
M432.906006,70.574265 
	C433.025238,95.304771 433.093201,119.731834 432.917145,144.157135 
	C432.889221,148.028442 431.761536,151.891815 430.618103,155.653748 
	C425.687225,139.084167 416.957825,125.039597 406.050598,111.899338 
	C406.476440,109.553017 406.958588,107.614174 406.965485,105.673645 
	C407.025360,88.796394 406.968567,71.918694 407.048370,55.041599 
	C407.056458,53.341915 407.737701,51.645409 408.106537,49.947430 
	C416.329071,56.721699 424.551575,63.495972 432.906006,70.574265 
z"/>
<path fill="#00BCD7" opacity="1.000000" stroke="none" 
	d="
M320.000000,79.832031 
	C320.000000,58.398563 319.981628,36.965054 320.030945,15.531697 
	C320.035461,13.579151 320.474426,11.627605 320.880768,9.284597 
	C330.262634,11.680631 339.475372,14.467663 348.700043,17.964863 
	C348.474670,20.623835 348.038513,22.571854 348.030853,24.521561 
	C347.956360,43.431938 347.953735,62.342602 347.491455,81.272041 
	C338.034882,80.804611 329.017426,80.318321 320.000000,79.832031 
z"/>
<path fill="#01B2E4" opacity="1.000000" stroke="none" 
	d="
M407.959473,49.630989 
	C407.737701,51.645409 407.056458,53.341915 407.048370,55.041599 
	C406.968567,71.918694 407.025360,88.796394 406.965485,105.673645 
	C406.958588,107.614174 406.476440,109.553017 405.748169,111.737823 
	C395.421875,104.699814 385.562073,97.416611 376.045105,89.864853 
	C376.591980,87.817200 376.968018,86.038597 376.973114,84.258942 
	C377.019043,68.188988 376.966980,52.118679 377.048431,36.049011 
	C377.057037,34.346779 377.737122,32.647953 378.105652,30.947544 
	C388.007904,37.069878 397.910156,43.192215 407.959473,49.630989 
z"/>
<path fill="#00B7DD" opacity="1.000000" stroke="none" 
	d="
M377.934692,30.632618 
	C377.737122,32.647953 377.057037,34.346779 377.048431,36.049011 
	C376.966980,52.118679 377.019043,68.188988 376.973114,84.258942 
	C376.968018,86.038597 376.591980,87.817200 375.693542,89.821312 
	C365.976318,87.115288 356.953491,84.184235 347.930634,81.253174 
	C347.953735,62.342602 347.956360,43.431938 348.030853,24.521561 
	C348.038513,22.571854 348.474670,20.623835 348.881104,18.283985 
	C358.037231,21.761301 367.024658,25.628613 376.010162,29.500380 
	C376.602173,29.755465 377.179565,30.044466 377.934692,30.632618 
z"/>
<path fill="#FEFFFF" opacity="1.000000" stroke="none" 
	d="
M347.491455,81.272034 
	C356.953491,84.184235 365.976318,87.115288 375.350708,90.089874 
	C385.562073,97.416611 395.421875,104.699814 405.584106,112.144531 
	C416.957825,125.039597 425.687225,139.084167 430.246094,155.865280 
	C431.599762,167.378647 433.738953,178.567078 433.837891,189.773529 
	C434.235809,234.836823 434.195557,279.907135 433.857849,324.971405 
	C433.779968,335.361542 431.883881,345.738098 430.815918,356.534058 
	C426.220856,372.019623 419.355499,385.878998 408.876923,398.176331 
	C400.925476,405.046661 393.112000,411.629120 385.108398,418.480286 
	C376.510864,422.458496 368.103455,426.167999 359.348450,430.021240 
	C350.296478,431.433350 341.592102,432.701721 332.443848,434.057434 
	C323.976013,434.105865 315.952087,434.066925 307.464050,434.098022 
	C298.976013,434.121307 290.952026,434.074585 282.463989,434.097961 
	C273.975891,434.121277 265.951843,434.074524 257.463745,434.097961 
	C249.309052,434.121307 241.618408,434.074493 233.463715,434.097900 
	C225.975616,434.121246 218.951584,434.074371 211.463547,434.097778 
	C202.975616,434.121063 194.951675,434.074097 186.463684,434.097412 
	C177.671539,433.306763 169.343445,432.445862 160.594604,431.512054 
	C151.764587,428.283905 143.355331,425.128693 134.597473,421.933228 
	C126.395599,415.956573 118.542343,410.020172 110.378181,403.945557 
	C104.625023,396.525879 99.182770,389.244385 93.456177,381.749878 
	C84.056458,365.555145 79.947052,348.328796 79.975540,329.971069 
	C80.051003,281.321106 79.959145,232.670898 80.019318,184.020874 
	C80.048256,160.625122 87.127983,139.529266 101.350914,120.486206 
	C109.257446,110.475571 118.339935,102.269882 129.063354,95.394775 
	C136.608902,91.760353 143.957687,88.409111 151.651672,84.897964 
	C159.735565,83.247559 167.474258,81.757050 175.606628,80.147308 
	C184.024017,80.009293 192.047729,79.990509 200.535492,79.901802 
	C209.690201,79.878487 218.380829,79.925087 227.535553,79.901810 
	C237.690308,79.878525 247.380981,79.925125 257.535736,79.901810 
	C268.690491,79.878563 279.381165,79.925224 290.535889,79.901871 
	C300.357269,79.878616 309.714539,79.925377 319.535919,79.902084 
	C329.017426,80.318321 338.034882,80.804611 347.491455,81.272034 
M236.927292,403.973389 
	C244.285004,403.926666 251.642715,403.879913 259.928284,403.973175 
	C268.285645,403.926575 276.643036,403.880005 285.928253,403.973450 
	C294.952362,403.926910 303.976501,403.880371 313.928497,403.973450 
	C322.952271,403.618286 331.976013,403.263123 341.813080,402.997406 
	C349.547272,400.346863 357.281464,397.696320 365.712341,394.960815 
	C372.169922,389.716522 378.627502,384.472229 385.703400,378.893524 
	C386.669281,377.574524 387.608429,376.234955 388.605133,374.939697 
	C398.620361,361.925232 403.970673,347.268402 403.980377,330.792358 
	C404.009338,281.529419 404.011353,232.266464 403.976471,183.003555 
	C403.963348,164.489639 397.079071,148.617691 384.841217,134.160370 
	C378.246765,129.097534 371.652313,124.034714 364.608582,118.435478 
	C355.932098,113.969231 346.806000,111.061752 336.099976,110.229362 
	C325.400116,110.208275 314.700226,110.187187 303.072113,110.026756 
	C290.381500,110.073341 277.690887,110.119926 264.071960,110.027260 
	C252.380966,110.073669 240.689957,110.120071 228.071091,110.027069 
	C217.046982,110.073425 206.022873,110.119781 194.071289,110.026924 
	C184.359390,110.935455 174.647491,111.843987 164.141052,112.780136 
	C153.866943,115.458694 144.573303,119.998169 136.053375,127.522247 
	C119.032280,142.156815 110.451385,160.798676 110.054085,183.142166 
	C109.808304,196.964569 110.000656,210.794800 110.000221,224.621506 
	C109.999123,259.604797 109.869736,294.588776 110.046623,329.571167 
	C110.163193,352.624329 118.583725,372.004211 136.993729,387.319916 
	C145.309296,393.965149 154.337479,399.180725 165.524948,401.716675 
	C174.016312,402.422363 182.507675,403.128052 191.927200,403.973938 
	C199.284439,403.927094 206.641663,403.880249 214.926987,403.973694 
	C221.951035,403.926941 228.975082,403.880188 236.927292,403.973389 
z"/>
<path fill="#01DAAE" opacity="1.000000" stroke="none" 
	d="
M164.935242,401.247375 
	C154.337479,399.180725 145.309296,393.965149 136.939331,386.515625 
	C136.921326,384.879089 136.989487,384.046875 136.989548,383.214661 
	C136.995972,299.382385 136.998779,215.550125 136.986450,131.717865 
	C136.986237,130.224213 136.800827,128.730591 136.701828,127.236961 
	C144.573303,119.998169 153.866943,115.458694 164.557312,113.252762 
	C164.982361,148.361221 164.961441,182.997177 165.085022,217.632599 
	C165.091400,219.424103 166.332458,221.211212 166.992493,223.380890 
	C166.312408,225.805054 165.591248,227.834473 164.971954,229.894501 
	C159.042923,249.616989 160.162811,269.203766 165.971008,289.096130 
	C165.532883,291.617645 165.038193,293.734192 165.034012,295.851685 
	C164.964661,330.983521 164.956833,366.115448 164.935242,401.247375 
z"/>
<path fill="#01DFA9" opacity="1.000000" stroke="none" 
	d="
M136.377594,127.379608 
	C136.800827,128.730591 136.986237,130.224213 136.986450,131.717865 
	C136.998779,215.550125 136.995972,299.382385 136.989548,383.214661 
	C136.989487,384.046875 136.921326,384.879089 136.795197,386.237061 
	C118.583725,372.004211 110.163193,352.624329 110.046623,329.571167 
	C109.869736,294.588776 109.999123,259.604797 110.000221,224.621506 
	C110.000656,210.794800 109.808304,196.964569 110.054085,183.142166 
	C110.451385,160.798676 119.032280,142.156815 136.377594,127.379608 
z"/>
<path fill="#01B9DC" opacity="1.000000" stroke="none" 
	d="
M337.010559,110.474762 
	C346.806000,111.061752 355.932098,113.969231 364.481567,118.898193 
	C363.903076,121.041214 363.100525,122.713509 363.061951,124.403244 
	C362.910400,131.038895 363.131073,137.684418 362.910858,144.316238 
	C362.852631,146.069901 361.711090,147.787598 360.757416,149.376801 
	C359.697784,148.875778 358.971893,148.452072 358.193878,148.174484 
	C351.945557,145.945328 344.492035,148.057755 341.391693,153.354553 
	C338.453766,158.373932 338.466858,166.261902 343.846680,171.103775 
	C349.375153,176.079407 356.574738,175.801910 363.973816,170.171570 
	C364.360565,173.049973 364.957825,175.497131 364.959686,177.944748 
	C365.014618,250.311737 365.010437,322.678741 365.015656,395.045776 
	C357.281464,397.696320 349.547272,400.346863 341.406555,402.490295 
	C341.000000,372.598297 341.036713,343.213318 340.935577,313.828796 
	C340.926788,311.269989 340.010498,308.714355 339.638367,305.853638 
	C347.554230,292.095276 351.979401,277.601227 352.813751,262.084717 
	C354.018127,239.686096 347.540222,219.456451 335.450653,200.767456 
	C336.188049,198.683929 336.942444,196.808914 336.947723,194.931808 
	C337.026764,166.779617 337.007050,138.627167 337.010559,110.474762 
z"/>
<path fill="#00B5E0" opacity="1.000000" stroke="none" 
	d="
M361.066986,149.521805 
	C361.711090,147.787598 362.852631,146.069901 362.910858,144.316238 
	C363.131073,137.684418 362.910400,131.038895 363.061951,124.403244 
	C363.100525,122.713509 363.903076,121.041214 364.706238,119.166397 
	C371.652313,124.034714 378.246765,129.097534 384.937622,134.950134 
	C385.022705,153.239090 384.996674,170.738251 385.002625,188.237427 
	C385.024323,251.900940 385.056702,315.564453 385.085083,379.227966 
	C378.627502,384.472229 372.169922,389.716522 365.364014,395.003296 
	C365.010437,322.678741 365.014618,250.311737 364.959686,177.944748 
	C364.957825,175.497131 364.360565,173.049973 364.088806,169.838654 
	C368.562073,161.094589 367.808136,156.292267 361.066986,149.521805 
z"/>
<path fill="#01B2E5" opacity="1.000000" stroke="none" 
	d="
M385.394226,379.060730 
	C385.056702,315.564453 385.024323,251.900940 385.002625,188.237427 
	C384.996674,170.738251 385.022705,153.239090 385.059448,135.255814 
	C397.079071,148.617691 403.963348,164.489639 403.976471,183.003555 
	C404.011353,232.266464 404.009338,281.529419 403.980377,330.792358 
	C403.970673,347.268402 398.620361,361.925232 388.605133,374.939697 
	C387.608429,376.234955 386.669281,377.574524 385.394226,379.060730 
z"/>
<path fill="#01D6B5" opacity="1.000000" stroke="none" 
	d="
M166.998672,223.000366 
	C166.332458,221.211212 165.091400,219.424103 165.085022,217.632599 
	C164.961441,182.997177 164.982361,148.361221 164.954575,113.238953 
	C174.647491,111.843987 184.359390,110.935455 194.535446,110.554138 
	C194.999725,130.844650 194.945068,150.608231 195.044800,170.371033 
	C195.065506,174.477310 195.658463,178.580688 195.769226,182.954895 
	C182.748932,194.125366 173.485214,207.566101 166.998672,223.000366 
z"/>
<path fill="#01BED5" opacity="1.000000" stroke="none" 
	d="
M336.555267,110.352066 
	C337.007050,138.627167 337.026764,166.779617 336.947723,194.931808 
	C336.942444,196.808914 336.188049,198.683929 335.173553,200.576385 
	C326.111755,188.823196 315.168213,179.861465 303.002380,172.039993 
	C303.441833,169.517166 303.955841,167.413895 303.963165,165.308884 
	C304.027008,146.928131 304.000244,128.547073 304.000366,110.166100 
	C314.700226,110.187187 325.400116,110.208275 336.555267,110.352066 
z"/>
<path fill="#01D6B5" opacity="1.000000" stroke="none" 
	d="
M165.230103,401.482025 
	C164.956833,366.115448 164.964661,330.983521 165.034012,295.851685 
	C165.038193,293.734192 165.532883,291.617645 166.230453,289.356567 
	C171.871735,304.287109 180.907059,316.845123 191.825531,328.228882 
	C191.335159,330.305573 191.024261,332.105042 191.021713,333.904968 
	C190.988617,357.214508 190.999359,380.524139 190.999039,403.833740 
	C182.507675,403.128052 174.016312,402.422363 165.230103,401.482025 
z"/>
<path fill="#01BDD6" opacity="1.000000" stroke="none" 
	d="
M339.515747,306.157227 
	C340.010498,308.714355 340.926788,311.269989 340.935577,313.828796 
	C341.036713,343.213318 341.000000,372.598297 340.999878,402.445557 
	C331.976013,403.263123 322.952271,403.618286 313.464233,403.446045 
	C313.008453,380.319183 313.016907,357.719727 313.217163,334.842712 
	C324.037384,326.866028 332.531586,317.205505 339.515747,306.157227 
z"/>
<path fill="#01C4CC" opacity="1.000000" stroke="none" 
	d="
M303.536255,110.096428 
	C304.000244,128.547073 304.027008,146.928131 303.963165,165.308884 
	C303.955841,167.413895 303.441833,169.517166 302.648590,171.925262 
	C290.485382,166.082367 277.947632,162.889694 265.000061,160.586761 
	C265.000061,143.465103 265.000183,126.815811 265.000275,110.166512 
	C277.690887,110.119926 290.381500,110.073341 303.536255,110.096428 
z"/>
<path fill="#01D0BC" opacity="1.000000" stroke="none" 
	d="
M195.987686,182.685410 
	C195.658463,178.580688 195.065506,174.477310 195.044800,170.371033 
	C194.945068,150.608231 194.999725,130.844650 194.999176,110.623749 
	C206.022873,110.119781 217.046982,110.073425 228.535370,110.554352 
	C228.999191,129.025528 228.998734,146.969421 228.681732,165.098404 
	C216.549332,169.180099 205.880707,175.211212 195.987686,182.685410 
z"/>
<path fill="#01CAC4" opacity="1.000000" stroke="none" 
	d="
M228.998276,164.913315 
	C228.998734,146.969421 228.999191,129.025528 228.999298,110.624054 
	C240.689957,110.120071 252.380966,110.073669 264.536133,110.096886 
	C265.000183,126.815811 265.000061,143.465103 264.536499,160.660706 
	C252.381439,162.442444 240.689865,163.677872 228.998276,164.913315 
z"/>
<path fill="#01C2CF" opacity="1.000000" stroke="none" 
	d="
M313.025391,335.120239 
	C313.016907,357.719727 313.008453,380.319183 313.000305,403.376282 
	C303.976501,403.880371 294.952362,403.926910 285.464111,403.445862 
	C285.000488,384.974487 285.000977,367.030670 285.317932,348.901581 
	C294.764709,344.184265 303.895050,339.652252 313.025391,335.120239 
z"/>
<path fill="#01D2BA" opacity="1.000000" stroke="none" 
	d="
M191.463120,403.903839 
	C190.999359,380.524139 190.988617,357.214508 191.021713,333.904968 
	C191.024261,332.105042 191.335159,330.305573 192.133392,328.348938 
	C199.842346,333.138885 206.920624,338.085815 213.999237,343.499390 
	C213.999359,363.921814 213.999130,383.877594 213.998901,403.833435 
	C206.641663,403.880249 199.284439,403.927094 191.463120,403.903839 
z"/>
<path fill="#00C6C9" opacity="1.000000" stroke="none" 
	d="
M285.001465,349.086884 
	C285.000977,367.030670 285.000488,384.974487 285.000183,403.375854 
	C276.643036,403.880005 268.285645,403.926575 259.464142,403.445618 
	C258.999969,386.322357 258.999939,369.726654 259.438019,353.041992 
	C268.251251,351.664337 276.626343,350.375610 285.001465,349.086884 
z"/>
<path fill="#01CEBF" opacity="1.000000" stroke="none" 
	d="
M214.462952,403.903564 
	C213.999130,383.877594 213.999359,363.921814 214.360809,343.527100 
	C222.147827,345.762512 229.573624,348.436768 236.940140,351.518799 
	C236.587234,354.028381 236.049255,356.128998 236.039124,358.232208 
	C235.965912,373.432343 235.999420,388.632965 235.999130,403.833435 
	C228.975082,403.880188 221.951035,403.926941 214.462952,403.903564 
z"/>
<path fill="#01CAC4" opacity="1.000000" stroke="none" 
	d="
M236.463211,403.903412 
	C235.999420,388.632965 235.965912,373.432343 236.039124,358.232208 
	C236.049255,356.128998 236.587234,354.028381 237.351562,351.488647 
	C244.881485,351.744171 251.940689,352.437531 258.999908,353.130920 
	C258.999939,369.726654 258.999969,386.322357 259.000214,403.375641 
	C251.642715,403.879913 244.285004,403.926666 236.463211,403.903412 
z"/>
<path fill="#FDFFFF" opacity="1.000000" stroke="none" 
	d="
M259.438019,353.041992 
	C251.940689,352.437531 244.881485,351.744171 237.410843,351.080902 
	C229.573624,348.436768 222.147827,345.762512 214.360474,343.060486 
	C206.920624,338.085815 199.842346,333.138885 192.456177,328.071899 
	C180.907059,316.845123 171.871735,304.287109 166.402130,288.952026 
	C160.162811,269.203766 159.042923,249.616989 164.971954,229.894501 
	C165.591248,227.834473 166.312408,225.805054 166.992493,223.380890 
	C173.485214,207.566101 182.748932,194.125366 195.769226,182.954895 
	C205.880707,175.211212 216.549332,169.180099 228.681732,165.098404 
	C240.689865,163.677872 252.381439,162.442444 264.536621,161.133057 
	C277.947632,162.889694 290.485382,166.082367 302.488251,172.344009 
	C315.168213,179.861465 326.111755,188.823196 334.842133,200.783936 
	C347.540222,219.456451 354.018127,239.686096 352.813751,262.084717 
	C351.979401,277.601227 347.554230,292.095276 339.638336,305.853638 
	C332.531586,317.205505 324.037384,326.866028 313.217163,334.842712 
	C303.895050,339.652252 294.764709,344.184265 285.317932,348.901581 
	C276.626343,350.375610 268.251251,351.664337 259.438019,353.041992 
M290.194305,200.095596 
	C280.856750,194.662125 270.865601,191.469360 259.103516,191.094666 
	C248.941223,190.847412 239.165924,192.481796 229.300827,197.135345 
	C207.345520,208.016541 194.835770,225.670135 191.349350,249.868530 
	C187.490479,276.652100 204.817001,306.775848 230.579880,317.360413 
	C239.972382,321.414368 249.710968,323.566406 260.824219,322.845337 
	C271.530975,322.031250 281.653595,319.368134 291.333435,313.177643 
	C309.395508,301.918579 319.421661,285.573853 322.571777,264.634277 
	C326.188446,240.593353 312.075897,211.923065 290.194305,200.095596 
z"/>
<path fill="#F9FDFE" opacity="1.000000" stroke="none" 
	d="
M360.757416,149.376801 
	C367.808136,156.292267 368.562073,161.094589 364.021729,169.407623 
	C356.574738,175.801910 349.375153,176.079407 343.846680,171.103775 
	C338.466858,166.261902 338.453766,158.373932 341.391693,153.354553 
	C344.492035,148.057755 351.945557,145.945328 358.193878,148.174484 
	C358.971893,148.452072 359.697784,148.875778 360.757416,149.376801 
z"/>
<path fill="#01CAC4" opacity="1.000000" stroke="none" 
	d="
M230.000305,197.080429 
	C239.165924,192.481796 248.941223,190.847412 259.551117,191.640045 
	C259.997955,235.694748 259.997162,279.204071 259.996399,322.713409 
	C249.710968,323.566406 239.972382,321.414368 230.289948,316.676941 
	C230.000107,276.355774 230.000198,236.718109 230.000305,197.080429 
z"/>
<path fill="#01C6CA" opacity="1.000000" stroke="none" 
	d="
M260.410309,322.779358 
	C259.997162,279.204071 259.997955,235.694748 259.997559,191.736023 
	C270.865601,191.469360 280.856750,194.662125 290.058594,200.603149 
	C289.615509,202.525635 289.041779,203.940216 289.039734,205.355606 
	C288.989746,239.769623 288.977448,274.183807 289.074066,308.597626 
	C289.078552,310.198975 290.154297,311.797272 290.731110,313.397003 
	C281.653595,319.368134 271.530975,322.031250 260.410309,322.779358 
z"/>
<path fill="#01D0BD" opacity="1.000000" stroke="none" 
	d="
M229.650574,197.107880 
	C230.000198,236.718109 230.000107,276.355774 230.000153,316.456543 
	C204.817001,306.775848 187.490479,276.652100 191.349350,249.868530 
	C194.835770,225.670135 207.345520,208.016541 229.650574,197.107880 
z"/>
<path fill="#02C1D1" opacity="1.000000" stroke="none" 
	d="
M291.032288,313.287323 
	C290.154297,311.797272 289.078552,310.198975 289.074066,308.597626 
	C288.977448,274.183807 288.989746,239.769623 289.039734,205.355606 
	C289.041779,203.940216 289.615509,202.525635 290.324097,200.852692 
	C312.075897,211.923065 326.188446,240.593353 322.571777,264.634277 
	C319.421661,285.573853 309.395508,301.918579 291.032288,313.287323 
z"/>
</svg>